# xmcd
#
# Track frame offsets:
#	183
#	18813
#	32443
#	41530
#	53820
#	69375
#	92343
#	109515
#	130128
#	145865
#	159348
#	171995
#	182423
#	214553
#
# Disc length: 3064 seconds
#
# Revision: 23
# Processed by: cddbd v1.5.2PL0 Copyright (c) Steve Scherf et al.
# Submitted via: audiograbber 1.83.01
#
DISCID=a60bf60e
DTITLE=The Beatles - 1967-1970 [remastered] [CD 1)
DYEAR=1973
DGENRE=Beat
TTITLE0=Strawberry Fields Forever
TTITLE1=Penny Lane
TTITLE2=Sgt. Pepper's Lonely Hearts Club Band
TTITLE3=With A Little Help From My Friends
TTITLE4=Lucy In The Sky With Diamonds
TTITLE5=A Day In The Life
TTITLE6=All You Need Is Love
TTITLE7=I Am The Walrus
TTITLE8=Hello, Goodbye
TTITLE9=The Fool On The Hill
TTITLE10=Magical Mystery Tour
TTITLE11=Lady Madonna
TTITLE12=Hey Jude
TTITLE13=Revolution
EXTD=
EXTT0=
EXTT1=
EXTT2=
EXTT3=
EXTT4=
EXTT5=
EXTT6=
EXTT7=
EXTT8=
EXTT9=
EXTT10=
EXTT11=
EXTT12=
EXTT13=
PLAYORDER=
